<svg width="60" height="38" viewBox="0 0 60 38" fill="none" xmlns="http://www.w3.org/2000/svg">
<path d="M50.5738 8.14844H24.126V29.8806H50.5738V8.14844Z" fill="#FD624B"/>
<path opacity="0.3" d="M50.5738 8.14844H24.126V29.8806H50.5738V8.14844Z" fill="white"/>
<path d="M30.6474 8.14844H10.1494V29.8806H30.6474V8.14844Z" fill="#FD624B"/>
<path opacity="0.1" d="M30.6474 8.14844H10.1494V29.8806H30.6474V8.14844Z" fill="white"/>
<path opacity="0.3" d="M23.2984 8.14844H17.4985V14.9115H23.2984V8.14844Z" fill="white"/>
<path opacity="0.1" d="M44.9385 8.14844H39.1387V14.9115H44.9385V8.14844Z" fill="black"/>
<path d="M39.4534 20.9385H38.6885C38.6764 20.7174 38.6764 20.4958 38.6885 20.2747C38.6885 19.9284 38.9547 19.2598 39.4389 19.5629C39.5889 19.6542 39.7632 19.4426 39.6132 19.3512C39.5046 19.2863 39.3816 19.2493 39.2551 19.2433C39.1286 19.2373 39.0026 19.2626 38.8884 19.317C38.7742 19.3713 38.6753 19.453 38.6007 19.5547C38.5261 19.6564 38.4781 19.7749 38.4609 19.8996C38.3963 20.2387 38.38 20.5852 38.4125 20.9289H37.972C37.7977 20.9289 37.7493 21.1935 37.9284 21.1983H38.4125C38.4125 21.6216 38.4125 22.0449 38.4125 22.4682C38.4125 22.6461 38.6885 22.6125 38.6885 22.4393C38.6885 22.0256 38.6885 21.6168 38.6885 21.2031H39.405C39.5841 21.2127 39.6325 20.9434 39.4534 20.9385Z" fill="white"/>
<path d="M40.7219 20.3421C40.7029 20.3374 40.6829 20.3374 40.6638 20.3421C39.41 20.2507 39.6084 22.2902 40.8091 22.2661C41.0656 22.2294 41.2993 22.0994 41.4648 21.9012C41.6303 21.703 41.7158 21.4508 41.7047 21.1935C41.7086 21.0696 41.6848 20.9464 41.6349 20.8327C41.585 20.7191 41.5104 20.6179 41.4164 20.5364C41.3223 20.455 41.2112 20.3953 41.0912 20.3617C40.9711 20.3281 40.8449 20.3214 40.7219 20.3421ZM40.9108 21.9727C40.0054 22.2084 39.715 20.5297 40.6445 20.6307C40.673 20.6385 40.7031 20.6385 40.7316 20.6307C41.6031 20.5008 41.6031 21.7899 40.9108 21.9727Z" fill="white"/>
<path d="M43.714 20.8472C43.3413 19.6446 41.4629 20.6307 42.0002 21.7274C42.1374 21.9425 42.3486 22.1006 42.5945 22.1723C42.8403 22.2439 43.1041 22.2243 43.3364 22.117C43.4529 22.0724 43.5579 22.0026 43.6439 21.9127C43.7299 21.8227 43.7947 21.715 43.8336 21.5971C43.8725 21.4793 43.8846 21.3543 43.8689 21.2313C43.8533 21.1082 43.8103 20.9902 43.7431 20.8856L43.714 20.8472ZM42.2181 21.535C41.9615 20.8039 43.1863 20.092 43.4575 20.9578C43.4605 20.973 43.4668 20.9873 43.476 20.9997C43.4852 21.0122 43.4971 21.0225 43.5107 21.0299C43.9852 21.8717 42.4795 22.295 42.2181 21.535Z" fill="white"/>
<path d="M45.815 22.1747C45.7327 21.0683 45.6552 19.962 45.5729 18.8605C45.5729 18.6825 45.2873 18.7162 45.2969 18.8893L45.3986 20.2843C45.2518 20.237 45.096 20.2238 44.9432 20.2455C44.7904 20.2673 44.6447 20.3235 44.5171 20.4099C44.3896 20.4962 44.2836 20.6104 44.2073 20.7437C44.131 20.877 44.0864 21.0259 44.0769 21.179C44.0382 21.9245 44.9096 22.1795 45.5293 22.0977V22.2035C45.5535 22.3767 45.8295 22.3478 45.815 22.1747ZM44.3626 21.2992C44.3546 21.179 44.3763 21.0586 44.4257 20.9486C44.4751 20.8386 44.5508 20.7422 44.6461 20.6678C44.7415 20.5934 44.8537 20.5432 44.9731 20.5217C45.0924 20.5001 45.2152 20.5078 45.3308 20.544C45.3578 20.5512 45.3862 20.5512 45.4131 20.544C45.447 20.9673 45.4761 21.3906 45.51 21.8187C45.0888 21.8764 44.4255 21.7898 44.3529 21.2992H44.3626Z" fill="white"/>
</svg>
