<svg width="248" height="230" viewBox="0 0 248 230" fill="none" xmlns="http://www.w3.org/2000/svg">
<path d="M124.188 196.678C177.033 196.678 219.872 194.346 219.872 191.47C219.872 188.595 177.033 186.263 124.188 186.263C71.3434 186.263 28.5044 188.595 28.5044 191.47C28.5044 194.346 71.3434 196.678 124.188 196.678Z" fill="#F5F5F5"/>
<path d="M96.2517 55.039C92.4074 57.9922 88.6519 62.7532 90.8529 67.919C93.0539 73.0848 107.138 73.6046 110.099 71.4794C113.948 68.7194 110.548 56.4282 107.548 56.3546C107.321 51.796 99.4644 52.5688 96.2517 55.039Z" fill="#263238"/>
<path d="M90.8677 104.788C90.8677 104.788 92.4123 130.98 94.1149 145.162C94.2876 158.479 97.5693 188.563 97.5693 188.563H101.177C101.784 173.636 106.24 159.698 103.279 146.533C110.188 120.681 105.455 104.806 105.455 104.806L90.8677 104.788Z" fill="#FFB573"/>
<path d="M94.7959 104.806C94.7959 104.806 102.223 133.86 104.256 146.234C106.398 159.234 109.586 184.46 109.438 188.554H112.552C112.552 188.554 117.783 163.033 112.942 146.694C116.934 109.894 107.084 104.834 107.084 104.834L94.7959 104.806Z" fill="#FFB573"/>
<path d="M76.9857 71.2034C76.7538 69.6348 73.6645 69.5014 73.6645 69.5014L72.184 68.8068C71.9241 68.6585 71.6126 68.6101 71.3152 68.6719C71.0177 68.7337 70.7577 68.9009 70.59 69.138L70.0965 69.9016C69.9528 70.2022 69.929 70.5407 70.0295 70.8561C70.1299 71.1716 70.348 71.4432 70.6443 71.622L71.0934 71.9256C71.8574 72.4346 72.7613 72.7298 73.699 72.7766L75.066 72.8456C75.3662 72.8617 75.6671 72.8274 75.9543 72.7444C76.2944 72.6447 76.5845 72.4339 76.7713 72.1508C76.958 71.8677 77.0289 71.5313 76.9709 71.2034H76.9857Z" fill="#FFB573"/>
<path d="M93.2563 80.3804C93.0687 80.5598 92.97 80.6472 92.8319 80.7622L92.442 81.0842C92.1854 81.2866 91.9189 81.4752 91.6573 81.6638C91.1244 82.0318 90.5815 82.3722 90.0239 82.6942C88.9048 83.322 87.7291 83.8576 86.5102 84.295C84.0825 85.1753 81.5052 85.6427 78.9005 85.675H78.6735C78.5546 85.6726 78.4359 85.6634 78.3182 85.6474C78.0864 85.6158 77.8594 85.5586 77.6421 85.4772C77.2762 85.3366 76.9415 85.1338 76.6551 84.8792C76.2842 84.5396 75.9817 84.1407 75.7619 83.7016C75.4541 83.0796 75.2239 82.4267 75.0759 81.7558C74.8142 80.6011 74.6493 79.4291 74.5824 78.2506C74.4488 75.9933 74.4983 73.7297 74.7305 71.4794C74.758 71.2279 74.8837 70.9946 75.0837 70.8238C75.2838 70.6531 75.5441 70.5569 75.8153 70.5535C76.0865 70.5501 76.3496 70.6397 76.5545 70.8054C76.7594 70.971 76.8918 71.2011 76.9265 71.4518V71.4794C77.193 73.623 77.499 75.7988 77.9135 77.8826C78.0963 78.8918 78.3485 79.889 78.6686 80.868C78.796 81.2684 78.9715 81.6542 79.1917 82.018C79.2805 82.1514 79.3693 82.2158 79.3299 82.1698C79.2645 82.1039 79.1833 82.0534 79.093 82.0226C79.013 81.9887 78.9282 81.9655 78.8413 81.9536H78.7081C79.769 81.8633 80.8213 81.7003 81.8565 81.466C82.8824 81.2272 83.8885 80.9197 84.8669 80.546C85.8412 80.1572 86.7803 79.6957 87.6748 79.166C88.1239 78.9084 88.5582 78.637 88.9777 78.3472C89.1849 78.2046 89.3823 78.0574 89.5797 77.9102L89.866 77.6894L90.0831 77.51L90.2114 77.4042C90.6418 77.0449 91.2057 76.8565 91.7829 76.8791C92.3601 76.9018 92.9051 77.1337 93.3015 77.5254C93.6979 77.9172 93.9146 78.4378 93.9052 78.9762C93.8958 79.5147 93.6612 80.0284 93.2513 80.408L93.2563 80.3804Z" fill="#FFB573"/>
<path d="M95.6841 75.2744C91.7805 74.6672 87.6845 77.142 85.5625 79.1568C84.4669 82.2296 87.9757 85.9648 87.9757 85.9648C87.9757 85.9648 92.9748 83.1036 94.7761 81.1486C96.5773 79.1936 97.9344 75.624 95.6841 75.2744Z" fill="#E0E0E0"/>
<path d="M107.775 104.457C107.775 104.457 113.282 108.1 114.319 120.212C114.733 124.982 115.478 144.012 117.048 152.2C111.397 155.963 94.4802 155.448 91.8301 153.249C92.5802 136.689 85.7898 114.724 90.7148 104.622C98.8674 103.689 107.775 104.457 107.775 104.457Z" fill="#263238"/>
<path opacity="0.2" d="M102.189 139.191C102.263 132.232 101.162 122.654 97.8208 116.978C98.961 124.062 102.189 139.191 102.189 139.191Z" fill="black"/>
<path d="M88.1285 80.8864C88.1285 84.8286 84.758 86.8986 88.5727 89.9346C88.7997 93.3386 89.0662 99.4336 90.1864 104.986C91.3461 106.49 99.8243 106.366 108.633 104.586C107.483 99.8246 107.908 92.069 110.923 81.4614C111.084 80.8727 111.112 80.2595 111.007 79.66C110.901 79.0606 110.664 78.488 110.31 77.978C109.956 77.468 109.493 77.0316 108.95 76.6962C108.406 76.3608 107.795 76.1336 107.153 76.0288C106.427 75.9092 105.672 75.7988 104.873 75.7068C102.118 75.3282 99.3372 75.1345 96.5525 75.1272C95.6543 75.1272 94.7216 75.1824 93.8333 75.2376C92.2901 75.3265 90.8412 75.9601 89.7814 77.0095C88.7217 78.0589 88.1306 79.4452 88.1285 80.8864Z" fill="#E0E0E0"/>
<path d="M106.125 87.731L95.7861 89.9134C95.3927 89.9964 95.146 90.361 95.235 90.7277L98.5823 104.505C98.6714 104.872 99.0626 105.102 99.456 105.019L109.794 102.837C110.188 102.754 110.435 102.389 110.345 102.022L106.998 88.2446C106.909 87.8779 106.518 87.648 106.125 87.731Z" fill="#FF4040"/>
<path d="M97.5751 80.2102C97.5751 80.2102 95.9018 82.0778 94.5198 82.5102L94.3618 83.4302C96.1094 83.2222 97.7225 82.4469 98.9176 81.2406L97.5751 80.2102Z" fill="#FF4040"/>
<path d="M93.0296 79.0832C93.0296 79.0832 92.9605 81.512 93.6811 82.6988L93.1431 83.49C91.9795 82.2559 91.319 80.6796 91.2773 79.0372L93.0296 79.0832Z" fill="#FF4040"/>
<path d="M104.533 66.9576C103.871 69.4048 103.096 73.9174 104.873 75.6976C104.873 75.6976 98.2553 77.3812 93.9421 82.9012C91.9681 77.1006 96.5724 75.118 96.5724 75.118C99.5877 74.658 99.6272 72.6064 99.2126 70.6376L104.533 66.9576Z" fill="#FFB573"/>
<path opacity="0.2" d="M102.367 68.4618L99.2178 70.6468C99.3196 71.1012 99.379 71.5629 99.3955 72.0268C100.541 71.9532 102.169 70.8998 102.357 69.8004C102.444 69.3581 102.447 68.9052 102.367 68.4618Z" fill="black"/>
<path d="M107.602 62.5968C106.334 66.562 105.889 68.2686 103.22 69.828C99.2026 72.1694 94.3367 69.759 94.3071 65.4994C94.3071 61.663 96.365 55.8394 100.94 55.2046C105.514 54.5698 108.89 58.627 107.602 62.5968Z" fill="#FFB573"/>
<path d="M104.286 56.8054C103.087 60.628 104.113 64.6254 106.561 65.0854C109.961 63.9032 109.793 60.3842 108.925 58.7742C108.056 57.1642 104.977 54.602 104.286 56.8054Z" fill="#263238"/>
<path d="M106.146 63.6732C104.256 64.2574 103.891 65.4396 103.891 65.4396C103.891 65.4396 105.189 64.584 106.433 64.745C106.252 64.4123 106.154 64.0459 106.146 63.6732Z" fill="#263238"/>
<path d="M101.424 62.2242C101.34 62.5508 101.088 62.7716 100.856 62.721C100.624 62.6704 100.501 62.353 100.584 62.0264C100.668 61.6998 100.92 61.4744 101.152 61.5296C101.384 61.5848 101.488 61.8976 101.424 62.2242Z" fill="#263238"/>
<path d="M97.0462 61.2536C96.9622 61.5802 96.7105 61.801 96.4785 61.7458C96.2465 61.6906 96.1231 61.3824 96.207 61.0512C96.2909 60.72 96.5427 60.5038 96.7747 60.559C97.0067 60.6142 97.135 60.9224 97.0462 61.2536Z" fill="#263238"/>
<path d="M96.8835 60.6004L96.0889 60.1726C96.0889 60.1726 96.3702 60.8902 96.8835 60.6004Z" fill="#263238"/>
<path d="M97.8757 61.7872C97.3739 62.4608 96.7723 63.0648 96.0889 63.5812C96.2389 63.7433 96.4245 63.8735 96.6331 63.9632C96.8417 64.0528 97.0685 64.0998 97.2982 64.101L97.8757 61.7872Z" fill="#ED893E"/>
<path d="M107.627 66.5758C107.366 66.8618 107.042 67.092 106.676 67.2507C106.311 67.4095 105.913 67.493 105.51 67.4958C104.478 67.4682 104.301 66.3642 104.868 65.458C105.362 64.6392 106.527 63.6686 107.425 64.1332C108.323 64.5978 108.328 65.8306 107.627 66.5758Z" fill="#FFB573"/>
<path d="M102.248 60.8166C102.195 60.7921 102.154 60.7491 102.134 60.697C102.055 60.4565 101.918 60.236 101.733 60.0526C101.548 59.8692 101.321 59.7277 101.068 59.639C101.014 59.625 100.967 59.5916 100.938 59.5461C100.91 59.5005 100.901 59.4464 100.915 59.3952C100.921 59.3699 100.933 59.3462 100.95 59.3253C100.966 59.3045 100.987 59.2871 101.011 59.2741C101.035 59.2612 101.062 59.253 101.09 59.2501C101.117 59.2472 101.145 59.2496 101.172 59.2572C101.495 59.362 101.787 59.5361 102.024 59.7654C102.262 59.9947 102.438 60.2729 102.539 60.5774C102.549 60.6018 102.553 60.6278 102.552 60.6539C102.551 60.68 102.543 60.7055 102.531 60.7289C102.518 60.7522 102.501 60.7729 102.479 60.7896C102.458 60.8063 102.433 60.8186 102.406 60.8258C102.354 60.8413 102.297 60.8381 102.248 60.8166Z" fill="#263238"/>
<path d="M95.4573 59.294C95.4013 59.2957 95.3466 59.2776 95.3043 59.2434C95.2654 59.2057 95.2437 59.1554 95.2437 59.1031C95.2437 59.0508 95.2654 59.0005 95.3043 58.9628C95.5244 58.7256 95.8026 58.5416 96.1155 58.4262C96.4283 58.3109 96.7664 58.2677 97.101 58.3004C97.1573 58.3094 97.2078 58.3384 97.2418 58.3812C97.2758 58.4241 97.2908 58.4775 97.2836 58.5304C97.2751 58.5822 97.2448 58.6288 97.1995 58.6599C97.1541 58.6909 97.0974 58.7039 97.0417 58.696C96.7769 58.6714 96.5096 58.7071 96.2629 58.8001C96.0161 58.893 95.7973 59.0404 95.6251 59.2296C95.6038 59.251 95.5778 59.2678 95.5488 59.2789C95.5198 59.29 95.4886 59.2952 95.4573 59.294Z" fill="#263238"/>
<path d="M101.251 61.5756L100.457 61.1432C100.457 61.1432 100.738 61.8653 101.251 61.5756Z" fill="#263238"/>
<path d="M100.994 94.2356L97.0459 93.5226L97.49 97.75C97.49 97.75 100.451 97.6304 102.139 96.37L102.297 95.818C102.114 94.9026 101.892 94.5668 100.994 94.2356Z" fill="#FFB573"/>
<path d="M94.6728 95.3258L95.1318 97.1152C95.1989 97.3722 95.3669 97.5964 95.6026 97.7437C95.8383 97.891 96.1247 97.9507 96.4053 97.911L97.5109 97.75L97.0667 93.5226L95.3835 94.093C95.1236 94.1817 94.9077 94.3563 94.7767 94.5835C94.6457 94.8107 94.6087 95.0748 94.6728 95.3258Z" fill="#FFB573"/>
<path d="M109.822 79.12C111.022 81.2614 112.069 83.4742 112.956 85.744C113.4 86.8802 113.82 88.044 114.155 89.2354C114.521 90.4698 114.769 91.7321 114.895 93.0074C114.925 93.3432 114.94 93.6882 114.945 94.0378V94.162V94.3598C114.933 94.4953 114.906 94.6294 114.866 94.76C114.793 95.0136 114.68 95.2555 114.53 95.4776C114.302 95.8082 114.003 96.0916 113.652 96.3102C113.223 96.5763 112.749 96.7737 112.25 96.8944C111.872 96.9917 111.488 97.067 111.101 97.1198C109.755 97.2775 108.398 97.3252 107.044 97.2624C104.477 97.152 101.922 96.866 99.3998 96.4068C99.1265 96.3646 98.8804 96.228 98.7105 96.0242C98.5406 95.8203 98.4594 95.5643 98.483 95.3071C98.5067 95.0499 98.6335 94.8105 98.8382 94.6366C99.0429 94.4627 99.3104 94.3672 99.5873 94.369C102.055 94.3276 104.552 94.2678 106.955 94.0976C108.106 94.0233 109.249 93.8695 110.375 93.6376C110.605 93.588 110.831 93.5235 111.051 93.4444C111.16 93.4162 111.261 93.366 111.347 93.2972C111.253 93.3494 111.174 93.424 111.12 93.5134C111.055 93.6103 111.005 93.7157 110.972 93.8262C110.955 93.8882 110.942 93.9512 110.933 94.0148C110.93 94.0454 110.93 94.0762 110.933 94.1068C110.933 93.8722 110.888 93.6468 110.849 93.3892C110.417 91.2572 109.744 89.174 108.84 87.1746C107.947 85.1 106.926 82.9886 105.879 80.9968V80.96C105.667 80.4786 105.657 79.9405 105.852 79.4526C106.046 78.9648 106.431 78.5632 106.929 78.3277C107.426 78.0922 108.001 78.0401 108.538 78.1818C109.075 78.3235 109.536 78.6486 109.827 79.0924L109.822 79.12Z" fill="#FFB573"/>
<path d="M107.409 76.1714C110.237 76.659 111.496 79.028 113.549 83.7568C112.922 86.94 107.903 88.6144 107.903 88.6144C107.903 88.6144 105.021 83.8534 104.449 81.328C103.876 78.8026 104.557 75.6792 107.409 76.1714Z" fill="#E0E0E0"/>
<path d="M101.433 188.6C101.41 188.539 101.365 188.487 101.306 188.452C101.247 188.418 101.177 188.404 101.108 188.411L97.7619 188.365C97.4195 188.344 97.0776 188.413 96.7749 188.563C95.2432 189.455 93.5227 190.028 91.7313 190.242C91.0207 190.343 91.3415 191.461 93.0194 191.48C95.7879 191.507 96.2912 191.314 98.6551 191.337C100.673 191.36 99.7112 191.443 101.315 191.48C101.7 191.48 102.016 191.254 101.966 191.02L101.433 188.6Z" fill="#263238"/>
<path d="M112.976 188.6C112.952 188.539 112.907 188.488 112.848 188.453C112.789 188.419 112.72 188.404 112.65 188.411L109.921 188.365C109.579 188.343 109.237 188.411 108.934 188.563C107.947 189.203 108.086 189.943 105.835 190.242C105.125 190.343 105.475 191.461 107.153 191.48C109.921 191.507 109.754 191.337 110.879 191.337C112.004 191.337 111.313 191.443 112.922 191.48C113.307 191.48 113.618 191.254 113.559 191.02L112.976 188.6Z" fill="#263238"/>
<path d="M95.7534 80.9186C97.1549 80.9738 99.726 82.0456 100.55 83.191C101.715 82.064 106.265 79.4466 106.344 75.9C105.787 75.4008 105.085 75.0649 104.325 74.934C104.325 74.934 98.2554 77.671 95.7534 80.9186Z" fill="#FAFAFA"/>
<path d="M93.4832 80.7346C93.4832 80.7346 93.1032 77.8688 96.8242 75.0858C96.4491 74.8006 94.9785 75.1226 94.9785 75.1226C94.9785 75.1226 90.6308 76.866 90.7591 81.3786C91.5426 80.8416 92.5199 80.6106 93.4832 80.7346Z" fill="#FAFAFA"/>
<path d="M92.9307 81.949C92.3927 82.1836 92.1804 83.8166 92.9307 84.1984C93.6809 84.5802 93.6069 83.0208 94.0412 82.4872C94.4756 81.9536 93.8734 81.5396 92.9307 81.949Z" fill="#FF4040"/>
<path d="M93.5917 82.5838C93.2067 83.0438 93.7052 84.6078 94.5345 84.6032C95.3637 84.5986 94.648 83.2232 94.8109 82.5424C94.9738 81.8616 94.2482 81.7742 93.5917 82.5838Z" fill="#FF4040"/>
<path d="M93.7052 83.7476C92.7822 82.4182 92.718 89.424 94.954 92.184C94.8059 89.4654 96.3706 85.6106 93.7052 83.7476Z" fill="#FF4040"/>
<path d="M93.6215 83.6878C93.2118 82.3354 91.1535 88.2602 92.2937 91.1536C92.9403 88.8122 95.354 85.9234 93.6215 83.6878Z" fill="#FF4040"/>
<path d="M100.501 65.366C100.716 65.2787 100.923 65.174 101.118 65.0532C101.129 65.0429 101.138 65.0307 101.144 65.0173C101.15 65.0039 101.153 64.9895 101.153 64.975C101.153 64.9604 101.15 64.946 101.144 64.9326C101.138 64.9192 101.129 64.907 101.118 64.8968C101.098 64.8723 101.068 64.8559 101.035 64.8508C101.002 64.8456 100.969 64.8522 100.941 64.8692C100.5 65.1442 99.9997 65.3238 99.4752 65.3947C98.9507 65.4655 98.4158 65.4259 97.91 65.2786C97.8951 65.2725 97.879 65.2692 97.8628 65.2689C97.8465 65.2686 97.8303 65.2713 97.8152 65.2769C97.8 65.2824 97.7862 65.2907 97.7745 65.3013C97.7629 65.3118 97.7535 65.3244 97.7471 65.3384C97.736 65.367 97.7375 65.3986 97.7514 65.4262C97.7653 65.4538 97.7904 65.4752 97.8211 65.4856C98.6998 65.755 99.6543 65.7124 100.501 65.366Z" fill="#263238"/>
<path d="M86.1794 68.609H60.9668V69.3726H86.1794V68.609Z" fill="#FF4040"/>
<path d="M85.5774 69.3726H61.5688L62.6249 69.9062H84.5213L85.5774 69.3726Z" fill="#FF4040"/>
<path opacity="0.2" d="M85.5774 69.3726H61.5688L62.6249 69.9062H84.5213L85.5774 69.3726Z" fill="black"/>
<path d="M69.0455 48.1528C68.898 48.1516 68.7569 48.0965 68.6526 47.9992C68.5483 47.902 68.4891 47.7705 68.4878 47.633V45.8896C68.4891 45.7521 68.5483 45.6206 68.6526 45.5234C68.7569 45.4262 68.898 45.371 69.0455 45.3698C69.1931 45.371 69.3342 45.4262 69.4385 45.5234C69.5428 45.6206 69.602 45.7521 69.6033 45.8896V47.633C69.602 47.7705 69.5428 47.902 69.4385 47.9992C69.3342 48.0965 69.1931 48.1516 69.0455 48.1528Z" fill="#263238"/>
<path d="M69.9434 45.7838V45.5538C69.9434 45.3302 69.7489 45.149 69.509 45.149H68.581C68.3411 45.149 68.1467 45.3302 68.1467 45.5538V45.7838C68.1467 46.0073 68.3411 46.1886 68.581 46.1886H69.509C69.7489 46.1886 69.9434 46.0073 69.9434 45.7838Z" fill="#263238"/>
<path d="M69.9384 51.9386V46.966C69.9384 46.9119 69.9157 46.8599 69.8751 46.8212C69.8345 46.7825 69.7793 46.7602 69.7213 46.759H68.3691C68.3111 46.7602 68.2558 46.7825 68.2152 46.8212C68.1747 46.8599 68.1519 46.9119 68.152 46.966V51.9386C68.1521 52.3123 68.0673 52.6818 67.9032 53.0227C67.739 53.3637 67.4992 53.6683 67.1995 53.9166C66.9009 54.1667 66.6619 54.4723 66.4979 54.8138C66.3338 55.1553 66.2484 55.525 66.2471 55.8992V68.655H71.8384V55.8992C71.838 55.5249 71.753 55.1549 71.5888 54.8132C71.4247 54.4716 71.1852 54.1661 70.8859 53.9166C70.5877 53.6675 70.3491 53.3626 70.1858 53.0218C70.0226 52.6809 69.9383 52.3118 69.9384 51.9386Z" fill="#FF4040"/>
<path d="M71.839 57.408H68.147V65.6558H71.839V57.408Z" fill="#E0E0E0"/>
<path d="M77.0794 68.609H76.4131C76.635 68.6229 76.8576 68.6229 77.0794 68.609Z" fill="#FF4040"/>
<path d="M81.1014 68.609H80.4302C80.6537 68.6229 80.8779 68.6229 81.1014 68.609Z" fill="#FF4040"/>
<path opacity="0.2" d="M76.186 58.88V60.973C76.186 62.6382 77.2026 64.0228 78.4907 64.193V67.873C78.4907 68.4388 77.8985 68.5998 77.4395 68.6366H80.0698C79.6109 68.5998 79.0187 68.4388 79.0187 67.873V64.193C80.3067 64.0274 81.3233 62.6428 81.3233 60.973V58.88H76.186Z" fill="#FF4040"/>
<path d="M106.763 56.9112C104.789 57.6932 98.1763 57.9324 95.5854 57.408C98.2651 53.8798 104.286 52.8448 106.763 56.9112Z" fill="#263238"/>
<path d="M112.986 69.5152C112.967 69.5148 112.948 69.5105 112.931 69.5026C112.914 69.4946 112.899 69.4832 112.887 69.4692C112.823 69.3864 111.367 67.39 111.338 62.0448C111.338 59.8138 110.602 58.0198 109.364 57.1136C109.042 56.8657 108.662 56.6916 108.255 56.6054C107.848 56.5191 107.425 56.523 107.02 56.6168C107.004 56.6201 106.987 56.6205 106.971 56.6179C106.955 56.6153 106.94 56.6098 106.926 56.6017C106.913 56.5936 106.901 56.583 106.891 56.5706C106.882 56.5582 106.875 56.5442 106.872 56.5294C106.868 56.5146 106.868 56.4993 106.87 56.4843C106.873 56.4694 106.879 56.4551 106.888 56.4423C106.897 56.4295 106.908 56.4184 106.921 56.4097C106.935 56.4009 106.95 56.3947 106.965 56.3914C107.406 56.2937 107.864 56.2914 108.306 56.3847C108.747 56.478 109.16 56.6644 109.512 56.9296C110.82 57.8818 111.575 59.7448 111.589 62.0402C111.619 67.3026 113.07 69.3174 113.07 69.3358C113.079 69.3482 113.086 69.3621 113.09 69.3769C113.093 69.3917 113.094 69.4071 113.091 69.422C113.088 69.437 113.082 69.4513 113.074 69.4642C113.065 69.477 113.054 69.4881 113.04 69.4968C113.024 69.5064 113.005 69.5127 112.986 69.5152Z" fill="#263238"/>
<path d="M148.498 42.435C149.875 44.1922 149.87 46.9292 149.402 48.415C146.934 47.3708 147.319 44.3716 147.319 44.3716L148.498 42.435Z" fill="#263238"/>
<path d="M155.875 64.1838L157.297 65.642L158.777 67.1232C159.764 68.103 160.751 69.0598 161.768 69.9798C162.261 70.4398 162.755 70.8998 163.283 71.3046C163.811 71.7094 164.27 72.1418 164.788 72.5144C165.306 72.887 165.775 73.2182 166.234 73.5034C166.579 73.7194 166.942 73.9101 167.32 74.0738L166.564 73.9634C166.341 73.9382 166.114 73.9853 165.923 74.0968C165.923 74.0968 166.041 74.0968 166.209 74.0048C166.667 73.7431 167.093 73.4346 167.477 73.0848C168.488 72.1898 169.433 71.2324 170.305 70.219C171.248 69.1656 172.166 68.0432 173.079 66.907C173.992 65.7708 174.905 64.607 175.803 63.4616L175.847 63.411C176.162 63.0241 176.612 62.7523 177.119 62.6429C177.627 62.5336 178.159 62.5935 178.624 62.8124C179.089 63.0312 179.457 63.3951 179.664 63.8407C179.87 64.2863 179.903 64.7854 179.756 65.251C179.256 66.7048 178.678 68.1341 178.023 69.5336C177.377 70.9136 176.661 72.2936 175.852 73.6736C175.012 75.1089 174.042 76.474 172.95 77.7538C172.299 78.5104 171.565 79.2011 170.759 79.8146C170.225 80.2171 169.64 80.557 169.017 80.8266C168.102 81.2241 167.1 81.4163 166.091 81.3878C165.905 81.3813 165.719 81.3582 165.538 81.3188L165.331 81.2774C164.25 81.0359 163.204 80.6729 162.217 80.1964C161.39 79.8038 160.591 79.3628 159.823 78.8762C158.416 77.9934 157.074 77.0237 155.806 75.9736C154.563 74.9662 153.408 73.9128 152.288 72.841C151.735 72.2982 151.182 71.7554 150.654 71.1942C150.126 70.633 149.618 70.0856 149.06 69.4462C148.438 68.6037 148.172 67.5762 148.314 66.5618C148.457 65.5475 148.997 64.6181 149.83 63.953C150.664 63.2878 151.733 62.9339 152.83 62.9596C153.927 62.9852 154.975 63.3885 155.772 64.0918L155.875 64.1838Z" fill="#E0E0E0"/>
<path d="M178.014 65.9456L182.411 66.1434L180.985 60.6234C180.985 60.6234 176.894 60.904 176.237 62.8636C176.169 63.0821 176.183 63.316 176.277 63.526L177.086 65.3338C177.163 65.5073 177.29 65.6569 177.455 65.7653C177.619 65.8736 177.813 65.9361 178.014 65.9456Z" fill="#FF8B7B"/>
<path d="M186.334 62.8682L185.485 61.0282C185.32 60.6716 185.025 60.3808 184.652 60.2074C184.279 60.034 183.852 59.9891 183.447 60.0806L180.979 60.6464L182.406 66.1664L185.367 65.0532C185.587 64.9722 185.787 64.8506 185.956 64.6958C186.124 64.541 186.258 64.3561 186.348 64.1522C186.438 63.9483 186.484 63.7295 186.481 63.5089C186.479 63.2883 186.429 63.0704 186.334 62.8682Z" fill="#FF8B7B"/>
<path d="M145.477 142.388C140.809 123.248 137.922 100.17 137.922 100.17L157.065 99.8844C157.065 99.8844 156.798 130.985 156.838 144.012C156.887 157.559 157.894 187.372 157.894 187.372H152.085C152.085 187.372 144.589 159.132 145.477 142.388Z" fill="#263238"/>
<path d="M143.988 115.98L140.957 120.166C141.86 125.391 142.931 131.146 144.18 136.786C144.703 128.119 144.615 118.05 143.988 115.98Z" fill="black"/>
<path d="M165.642 190.026C165.642 190.026 157.642 188.269 157.04 187.087H152.599L152.628 191.47H155.372L155.792 191.066L156.487 191.47C158.708 191.47 164.61 191.388 166.007 190.923C166.035 190.757 166.016 190.587 165.951 190.429C165.887 190.272 165.781 190.133 165.642 190.026Z" fill="#263238"/>
<path d="M127.672 141.85C129.888 122.599 129.819 109.738 132.518 100.252L149.949 100.009C149.949 100.009 142.689 130.543 139.319 143.249C135.948 155.954 130.179 187.363 130.179 187.363H124.8C124.8 187.363 123.107 156.736 127.672 141.85Z" fill="#263238"/>
<path d="M131.137 104.001C130.752 106.301 129.38 119.908 127.959 124.862C139.581 129.669 157.347 127.779 157.894 124.66C157.732 118.882 157.401 104.001 157.401 104.001H131.137Z" fill="#E0E0E0"/>
<path opacity="0.1" d="M131.783 106.527C132.595 107.753 133.576 108.874 134.7 109.862C134.7 109.862 132.193 109.443 131.783 106.527Z" fill="black"/>
<path opacity="0.1" d="M155.145 109.733C155.811 108.807 156.352 107.807 156.754 106.757C156.754 106.757 156.868 109.107 155.145 109.733Z" fill="black"/>
<path opacity="0.1" d="M131.892 108.261C132.16 109.182 132.557 110.067 133.072 110.892C132.602 110.626 132.235 110.228 132.023 109.755C131.811 109.283 131.765 108.76 131.892 108.261Z" fill="black"/>
<path d="M135.193 190.026C135.193 190.026 130.204 188.269 129.631 187.087H125.19L125.101 191.47H128.738L129.167 191.066L129.853 191.47C132.074 191.47 134.122 191.388 135.534 190.923C135.567 190.759 135.553 190.589 135.494 190.432C135.434 190.274 135.33 190.134 135.193 190.026Z" fill="#263238"/>
<path d="M131.877 61.847C138.035 61.134 146.83 61.203 152.727 62.1506C154.2 62.3996 155.552 63.0742 156.592 64.0788C157.632 65.0834 158.306 66.3673 158.52 67.7488C159.759 76.0518 158.693 90.5602 157.904 105.165C144.431 109.462 130.218 105.105 130.218 105.105C129.725 102.161 130.83 92.506 131.571 87.354C130.46 82.0318 128.116 75.9368 126.547 68.8666C126.356 68.0757 126.346 67.2563 126.517 66.4615C126.687 65.6666 127.035 64.914 127.538 64.2524C128.04 63.5907 128.686 63.0347 129.433 62.6204C130.181 62.206 131.013 61.9426 131.877 61.847Z" fill="#263238"/>
<path opacity="0.1" d="M131.877 61.847C138.035 61.134 146.83 61.203 152.727 62.1506C154.2 62.3996 155.552 63.0742 156.592 64.0788C157.632 65.0834 158.306 66.3673 158.52 67.7488C159.759 76.0518 158.693 90.5602 157.904 105.165C144.431 109.462 130.218 105.105 130.218 105.105C129.725 102.161 130.83 92.506 131.571 87.354C130.46 82.0318 128.116 75.9368 126.547 68.8666C126.356 68.0757 126.346 67.2563 126.517 66.4615C126.687 65.6666 127.035 64.914 127.538 64.2524C128.04 63.5907 128.686 63.0347 129.433 62.6204C130.181 62.206 131.013 61.9426 131.877 61.847Z" fill="white"/>
<path d="M137.972 50.8852L144.979 56.2442C144.071 58.4936 143.785 60.8442 147.743 61.732C148.73 62.951 147.249 65.09 145.493 65.9226C141.337 65.0394 138.944 63.9998 137.33 61.9344C137.838 60.3152 138.648 54.211 137.972 50.8852Z" fill="#FF8B7B"/>
<path opacity="0.2" d="M140.893 53.1208L144.98 56.2396C144.759 56.7597 144.593 57.299 144.486 57.8496C142.902 57.9554 140.701 56.4696 140.602 55.1172C140.566 54.4407 140.665 53.7638 140.893 53.1208Z" fill="black"/>
<path d="M136.965 47.2328C137.606 51.3314 137.754 53.7602 140.177 55.683C143.824 58.5764 149.115 56.2212 149.805 52.003C150.422 48.2172 149.272 42.1498 144.796 40.8802C143.804 40.5986 142.75 40.5569 141.735 40.7589C140.72 40.961 139.777 41.4002 138.994 42.0353C138.211 42.6704 137.614 43.4805 137.259 44.3897C136.904 45.2989 136.803 46.2772 136.965 47.2328Z" fill="#FF8B7B"/>
<path d="M136.926 49.1234C137.377 49.5798 137.961 49.9047 138.606 50.0589C139.252 50.2132 139.931 50.1902 140.563 49.9928C139.507 48.9946 140.533 45.3422 139.477 43.8564C141.52 44.2336 149.475 45.31 150.235 42.7386C151.059 39.9786 147.768 37.7752 145.922 37.5682C146.465 38.7182 146.415 39.5508 144.392 39.1782C142.369 38.8056 134.029 37.0116 134.952 40.6548C132.267 40.6548 132.084 44.298 134.048 46.0414C135.124 46.9686 136.089 48.002 136.926 49.1234Z" fill="#263238"/>
<path d="M135.445 40.48C133.836 40.1074 134.34 38.7274 134.7 38.5848C133.195 38.9252 132.647 40.3052 134.463 40.94C136.28 41.5748 135.445 40.48 135.445 40.48Z" fill="#263238"/>
<path d="M135.726 49.749C135.876 50.1981 136.12 50.6151 136.443 50.9759C136.767 51.3367 137.164 51.6342 137.612 51.8512C138.821 52.4262 139.7 51.4786 139.586 50.2918C139.492 49.22 138.757 47.633 137.434 47.5318C137.143 47.5182 136.853 47.5729 136.591 47.6908C136.328 47.8087 136.102 47.9861 135.932 48.2066C135.762 48.4272 135.654 48.684 135.618 48.9534C135.582 49.2228 135.62 49.4964 135.726 49.749Z" fill="#FF8B7B"/>
<path d="M143.138 47.38C143.168 47.7158 143.385 47.9734 143.632 47.955C143.879 47.9366 144.037 47.6422 144.007 47.311C143.977 46.9798 143.76 46.7176 143.513 46.736C143.267 46.7544 143.109 47.0442 143.138 47.38Z" fill="#263238"/>
<path d="M147.442 47.2834C147.471 47.6192 147.688 47.8768 147.935 47.8538C148.182 47.8308 148.335 47.5456 148.305 47.2098C148.276 46.874 148.059 46.621 147.812 46.6394C147.565 46.6578 147.412 46.9476 147.442 47.2834Z" fill="#263238"/>
<path d="M146.568 47.7342C147.087 48.723 147.752 49.6395 148.542 50.4574C147.955 51.0646 146.849 50.9174 146.849 50.9174L146.568 47.7342Z" fill="#FF5652"/>
<path d="M142.472 46.3128C142.439 46.3217 142.403 46.3217 142.369 46.3128C142.342 46.3037 142.318 46.2897 142.298 46.2717C142.277 46.2536 142.261 46.2318 142.25 46.2077C142.239 46.1836 142.233 46.1577 142.233 46.1315C142.233 46.1053 142.239 46.0793 142.25 46.0552C142.369 45.7599 142.561 45.495 142.81 45.2822C143.06 45.0695 143.36 44.9151 143.687 44.8316C143.742 44.8213 143.8 44.8319 143.847 44.8612C143.894 44.8906 143.927 44.9362 143.938 44.988C143.95 45.0399 143.938 45.0937 143.907 45.1377C143.875 45.1817 143.826 45.2123 143.771 45.2226C143.512 45.2908 143.275 45.4151 143.079 45.5855C142.882 45.7558 142.732 45.9673 142.64 46.2024C142.625 46.2326 142.601 46.2585 142.572 46.2778C142.542 46.2971 142.508 46.3092 142.472 46.3128Z" fill="#263238"/>
<path d="M149.939 45.7792C149.904 45.7794 149.869 45.771 149.838 45.7549C149.806 45.7388 149.78 45.7155 149.762 45.6872C149.63 45.4722 149.446 45.2895 149.223 45.1543C149.001 45.0191 148.747 44.9352 148.483 44.9098C148.455 44.9092 148.428 44.9035 148.402 44.893C148.377 44.8825 148.354 44.8674 148.335 44.8486C148.315 44.8298 148.3 44.8077 148.29 44.7835C148.28 44.7592 148.275 44.7334 148.276 44.7074C148.279 44.6545 148.303 44.6047 148.345 44.5686C148.386 44.5325 148.441 44.513 148.498 44.5142C148.833 44.5426 149.155 44.6451 149.438 44.8132C149.721 44.9812 149.958 45.2099 150.127 45.4802C150.155 45.5251 150.163 45.5783 150.151 45.6288C150.138 45.6793 150.104 45.7233 150.058 45.7516C150.023 45.7736 149.981 45.7833 149.939 45.7792Z" fill="#263238"/>
<path d="M137.33 61.9344C137.33 61.9344 144.52 72.1188 147.254 79.304C149.949 70.8722 150.26 64.124 147.748 61.732C146.938 62.6842 143.681 63.9722 137.33 61.9344Z" fill="#E0E0E0"/>
<path d="M134.877 69.46L134.182 71.3L133.491 73.2136C133.032 74.4878 132.612 75.7666 132.222 77.0224C132.025 77.6526 131.852 78.2782 131.694 78.8946C131.536 79.511 131.383 80.1228 131.275 80.707C131.166 81.2912 131.082 81.857 131.028 82.363C131 82.7505 131 83.1393 131.028 83.5268L130.771 82.8552C130.564 82.4918 130.352 82.3952 130.342 82.3952C130.332 82.3952 130.411 82.4872 130.564 82.5884C131.024 82.8409 131.512 83.0446 132.02 83.1956C133.332 83.6066 134.673 83.9355 136.032 84.18C137.478 84.4468 138.968 84.64 140.474 84.87C141.979 85.1 143.528 85.261 145.019 85.4588H145.088C145.608 85.5282 146.085 85.7672 146.435 86.1332C146.785 86.4993 146.984 86.9689 146.997 87.4588C147.011 87.9487 146.838 88.4273 146.509 88.8097C146.181 89.1922 145.717 89.4538 145.201 89.5482C143.593 89.8327 141.971 90.0415 140.34 90.1738C138.712 90.3118 137.068 90.3808 135.405 90.3716C133.652 90.3686 131.902 90.2255 130.174 89.9438C129.16 89.7674 128.168 89.4945 127.213 89.1296C126.577 88.8852 125.977 88.5668 125.427 88.182C124.616 87.6235 123.957 86.8957 123.502 86.0568C123.418 85.9006 123.351 85.7373 123.3 85.5692L123.246 85.3806C122.958 84.3792 122.8 83.349 122.777 82.3124C122.753 81.448 122.788 80.583 122.881 79.7226C123.038 78.1509 123.31 76.591 123.695 75.0536C124.045 73.554 124.489 72.105 124.968 70.6744C125.215 69.9614 125.461 69.253 125.738 68.5492C126.014 67.8454 126.291 67.1692 126.631 66.4102C127.076 65.4187 127.918 64.6275 128.978 64.2039C130.038 63.7804 131.233 63.7577 132.31 64.1407C133.388 64.5237 134.263 65.2823 134.752 66.2561C135.24 67.23 135.303 68.3426 134.927 69.3588L134.877 69.46Z" fill="#E0E0E0"/>
<path d="M145.719 86.0522L150.082 86.5582L147.674 91.7608C147.674 91.7608 143.691 90.8408 143.405 88.7984C143.377 88.5726 143.434 88.3447 143.568 88.1544L144.693 86.503C144.801 86.3454 144.955 86.2195 145.137 86.1397C145.318 86.06 145.52 86.0297 145.719 86.0522Z" fill="#FF8B7B"/>
<path d="M153.354 90.4084L152.179 92.1012C151.952 92.4266 151.608 92.6661 151.208 92.7773C150.809 92.8885 150.38 92.8641 149.998 92.7084L147.674 91.7608L150.082 86.5582L152.801 88.1268C153 88.2413 153.172 88.3916 153.308 88.5689C153.444 88.7462 153.54 88.9469 153.592 89.1594C153.643 89.3719 153.649 89.5918 153.608 89.8062C153.567 90.0207 153.481 90.2254 153.354 90.4084Z" fill="#FF8B7B"/>
<path d="M137.68 60.352C136.764 60.4877 135.923 60.9094 135.297 61.548C137.251 63.9788 140.036 65.7151 143.193 66.47C142.966 65.7662 143.647 63.71 144.397 62.974C141.638 62.5922 137.68 60.352 137.68 60.352Z" fill="#FAFAFA"/>
<path d="M145.261 60.605C146.196 60.7635 147.086 61.1036 147.872 61.6032C147.872 61.6032 150.636 64.4782 147.378 66.102C147.6 65.3982 145.897 63.5214 144.372 62.974C147.126 62.5922 145.261 60.605 145.261 60.605Z" fill="#FAFAFA"/>
<path d="M144.679 64.6116C142.497 63.5214 139.797 62.3392 140.547 64.2482C141.298 66.1572 140.306 66.8196 141.283 67.4682C142.26 68.1168 144.244 66.3366 144.901 66.0882C145.557 65.8398 144.679 64.6116 144.679 64.6116Z" fill="#FF4040"/>
<path d="M146.223 64.5978C147.886 63.5536 149.969 62.422 149.599 64.285C149.229 66.148 150.147 66.7966 149.422 67.4268C148.696 68.057 146.83 66.2952 146.238 66.0468C145.646 65.7984 146.223 64.5978 146.223 64.5978Z" fill="#FF4040"/>
<path d="M144.382 64.4644C144.875 64.1884 146.08 63.8388 146.677 64.5886C147.274 65.3384 147.082 66.5942 146.257 66.746C145.963 66.8015 145.658 66.7816 145.375 66.6885C145.091 66.5953 144.84 66.4324 144.648 66.217C144.831 65.9421 144.905 65.616 144.856 65.2957C144.808 64.9753 144.64 64.6811 144.382 64.4644Z" fill="#FF4040"/>
<path d="M130.48 187.51L124.494 187.666L124.178 184.506L131.132 184.892L130.48 187.51Z" fill="black"/>
<path d="M158.106 187.501L151.641 187.666L150.926 184.929L158.146 184.276L158.106 187.501Z" fill="black"/>
<path d="M144.017 84.9804C140.994 84.1474 137.877 83.6456 134.729 83.4854C134.058 83.5222 133.801 97.658 133.856 103.44C133.856 104.222 143.508 104.066 145.976 103.712C146.114 102.097 146.144 90.3118 146.785 86.6272C146.834 86.339 146.778 86.0437 146.626 85.7886C146.474 85.5335 146.235 85.3332 145.946 85.2196C145.335 84.9899 144.671 84.9076 144.017 84.9804Z" fill="white"/>
<path d="M194.546 62.353H167.147V63.0798H194.546V62.353Z" fill="#FF4040"/>
<path d="M193.973 63.0798H167.719L168.726 63.5904H192.971L193.973 63.0798Z" fill="#FF4040"/>
<path opacity="0.2" d="M193.973 63.0798H167.719L168.726 63.5904H192.971L193.973 63.0798Z" fill="black"/>
<path d="M181.977 52.0858C181.978 52.2943 181.912 52.4984 181.789 52.6723C181.665 52.8461 181.489 52.9819 181.283 53.0623C181.076 53.1427 180.849 53.1642 180.629 53.1241C180.41 53.084 180.208 52.984 180.049 52.8369C179.891 52.6898 179.782 52.5021 179.738 52.2976C179.694 52.0931 179.716 51.8811 179.802 51.6884C179.887 51.4956 180.032 51.3308 180.218 51.2149C180.404 51.0989 180.623 51.037 180.847 51.037C180.995 51.0364 181.142 51.0631 181.279 51.1155C181.416 51.1679 181.541 51.2451 181.646 51.3426C181.751 51.44 181.834 51.5558 181.891 51.6834C181.948 51.8109 181.977 51.9477 181.977 52.0858Z" fill="#FF4040"/>
<path d="M192.691 58.9812C191.93 56.7848 190.483 54.8499 188.535 53.4244L188.841 53.061C190.868 54.5442 192.374 56.5576 193.165 58.8432L192.691 58.9812Z" fill="#FF4040"/>
<path d="M186.823 52.3664C186.27 52.0817 185.694 51.8372 185.101 51.635L185.268 51.2026C185.886 51.4191 186.485 51.679 187.06 51.98L186.823 52.3664Z" fill="#FF4040"/>
<path d="M180.846 52.0858C177.874 52.0858 175.023 53.1864 172.922 55.1456C170.82 57.1047 169.639 59.7618 169.639 62.5324H192.054C192.054 59.7618 190.873 57.1047 188.771 55.1456C186.669 53.1864 183.819 52.0858 180.846 52.0858Z" fill="#FF4040"/>
<path opacity="0.3" d="M171.184 61.5986H174.081C174.181 61.597 174.277 61.5631 174.354 61.5027C174.43 61.4424 174.482 61.3592 174.5 61.2674C175.082 58.4062 176.913 55.913 179.825 53.7464C179.891 53.6969 179.938 53.6287 179.959 53.5522C179.979 53.4756 179.973 53.3948 179.94 53.322C179.907 53.2493 179.849 53.1885 179.776 53.1488C179.703 53.1092 179.618 53.0929 179.534 53.1024C177.332 53.3733 175.284 54.3049 173.7 55.7563C172.117 57.2077 171.082 59.1002 170.754 61.1478C170.747 61.2044 170.752 61.262 170.77 61.3165C170.788 61.3711 170.819 61.4214 170.859 61.4641C170.9 61.5068 170.95 61.5409 171.006 61.5641C171.062 61.5873 171.123 61.5991 171.184 61.5986Z" fill="white"/>
<path d="M145.192 52.1134C145.423 52.1228 145.654 52.112 145.883 52.0812C145.913 52.0756 145.941 52.059 145.958 52.0348C145.976 52.0107 145.982 51.9811 145.976 51.9524C145.968 51.9224 145.949 51.8962 145.922 51.8784C145.895 51.8607 145.861 51.8527 145.828 51.8558C145.313 51.9273 144.787 51.889 144.289 51.7441C143.792 51.5991 143.336 51.3511 142.956 51.0186C142.945 51.0076 142.931 50.9988 142.916 50.9929C142.902 50.9869 142.886 50.9838 142.869 50.9838C142.853 50.9838 142.837 50.9869 142.822 50.9929C142.807 50.9988 142.794 51.0076 142.783 51.0186C142.761 51.0406 142.75 51.0693 142.75 51.0991C142.75 51.1289 142.761 51.1576 142.783 51.1796C143.436 51.7555 144.293 52.0878 145.192 52.1134Z" fill="#263238"/>
</svg>
