<svg width="248" height="230" viewBox="0 0 248 230" fill="none" xmlns="http://www.w3.org/2000/svg">
<path d="M124.277 196.678C71.4322 196.678 28.5931 194.346 28.5931 191.47C28.5931 188.595 71.4322 186.263 124.277 186.263C177.121 186.263 219.96 188.595 219.96 191.47C219.96 194.346 177.121 196.678 124.277 196.678Z" fill="#F5F5F5"/>
<path d="M178.694 191.47H180.668" stroke="#FF3E3E" stroke-linecap="round" stroke-linejoin="round"/>
<path d="M184.399 191.47H234.81" stroke="#FF3E3E" stroke-linecap="round" stroke-linejoin="round" stroke-dasharray="7.57 7.57"/>
<path d="M236.675 191.47H238.649" stroke="#FF3E3E" stroke-linecap="round" stroke-linejoin="round"/>
<path d="M61.2294 81.3607L118.171 82.2408L117.489 120.558L60.5478 119.678L61.2294 81.3607Z" fill="#FF3E3E"/>
<path opacity="0.3" d="M83.8009 81.7048L118.227 82.2369L117.546 120.554L83.1193 120.022L83.8009 81.7048Z" fill="white"/>
<path opacity="0.3" d="M78.613 84.2867L88.5273 84.4716L88.4721 87.0476L78.5578 86.8627L78.613 84.2867Z" fill="white"/>
<path opacity="0.3" d="M78.3187 114.083L88.2317 114.236L88.1859 116.812L78.2729 116.659L78.3187 114.083Z" fill="white"/>
<path d="M71.7095 105.887C68.4962 105.887 65.8912 103.14 65.8912 99.751C65.8912 96.3619 68.4962 93.6146 71.7095 93.6146C74.9229 93.6146 77.5278 96.3619 77.5278 99.751C77.5278 103.14 74.9229 105.887 71.7095 105.887Z" stroke="white" stroke-miterlimit="10"/>
<path d="M71.4678 94.5484V95.5788" stroke="white" stroke-linecap="round" stroke-linejoin="round"/>
<path d="M71.2161 103.988V105.018" stroke="white" stroke-linecap="round" stroke-linejoin="round"/>
<path d="M76.615 99.5486H75.5044" stroke="white" stroke-linecap="round" stroke-linejoin="round"/>
<path d="M67.7024 99.5532H66.5918" stroke="white" stroke-linecap="round" stroke-linejoin="round"/>
<path d="M71.4727 99.5486L71.4681 96.3746" stroke="white" stroke-width="0.5" stroke-linecap="round" stroke-linejoin="round"/>
<path d="M71.2556 99.7556L68.8469 102" stroke="white" stroke-width="0.5" stroke-linecap="round" stroke-linejoin="round"/>
<path d="M70.9345 99.5532C70.9345 99.6523 70.9661 99.7493 71.0252 99.8317C71.0843 99.9142 71.1683 99.9785 71.2666 100.016C71.3649 100.054 71.4731 100.064 71.5775 100.045C71.6818 100.026 71.7777 99.9779 71.8529 99.9077C71.9282 99.8376 71.9794 99.7483 72.0002 99.651C72.0209 99.5537 72.0103 99.4529 71.9695 99.3613C71.9288 99.2697 71.8599 99.1914 71.7714 99.1363C71.6829 99.0812 71.5789 99.0518 71.4725 99.0518C71.4017 99.0512 71.3314 99.0637 71.2658 99.0887C71.2003 99.1137 71.1407 99.1506 71.0906 99.1973C71.0405 99.2439 71.0009 99.2995 70.9741 99.3606C70.9473 99.4217 70.9339 99.4872 70.9345 99.5532Z" fill="white"/>
<path opacity="0.3" d="M71.7096 107.511C67.4551 107.511 64.0062 104.037 64.0062 99.751C64.0062 95.4651 67.4551 91.9908 71.7096 91.9908C75.9641 91.9908 79.4131 95.4651 79.4131 99.751C79.4131 104.037 75.9641 107.511 71.7096 107.511Z" fill="white"/>
<path d="M135.686 167.049C134.828 167.661 117.59 165.931 122.046 137.425C122.046 137.425 113.869 139.362 112.99 139.233C112.99 139.233 100.994 156.377 109.728 164.869C118.463 173.36 131.482 173.88 131.482 173.88L135.686 167.049Z" fill="#FF3E3E"/>
<path opacity="0.3" d="M135.686 167.049C134.828 167.661 117.59 165.931 122.046 137.425C122.046 137.425 113.869 139.362 112.99 139.233C112.99 139.233 100.994 156.377 109.728 164.869C118.463 173.36 131.482 173.88 131.482 173.88L135.686 167.049Z" fill="black"/>
<path d="M116.583 141.836C116.539 141.836 121.4 141.924 123.028 140.038C124.657 138.152 125.757 134.78 122.796 132.48C119.835 130.18 102.449 120.244 94.2622 119.462C86.0752 118.68 77.3107 123.602 77.3107 123.602L88.0294 130.99L111.11 136.197L116.583 141.836Z" fill="#263238"/>
<path d="M132.301 162.559L131.852 166.681L126.542 166.262L127.341 162.026L132.301 162.559Z" fill="#FFC3BD"/>
<path d="M133.332 166.382L125.629 166.281L125.081 169.906C125.081 169.906 132.296 169.998 135.262 169.63C138.228 169.262 137.764 167.822 137.764 167.822C137.764 167.822 134.29 167.9 133.332 166.382Z" fill="#263238"/>
<path d="M66.1045 176.815C64.9543 166.278 71.7789 157 81.3478 156.093C90.9167 155.185 99.6062 162.991 100.756 173.528C101.907 184.065 95.082 193.343 85.5132 194.25C75.9443 195.158 67.2547 187.352 66.1045 176.815Z" fill="#263238"/>
<path d="M95.5356 116.513C95.5356 116.513 94.7361 133.612 105.405 134.099C116.075 134.587 127.539 133.497 127.539 133.497L124.178 164.22L134.181 164.795C134.181 164.795 141.361 138.731 142.492 132.181C143.622 125.631 142.64 120.998 135.222 118.091C127.805 115.184 95.5356 116.513 95.5356 116.513Z" fill="#FF3E3E"/>
<path d="M155.243 170.761L141.953 134.78L124.188 116.5C124.188 116.5 139.693 116.555 147.145 120.548C154.597 124.54 154.873 129.338 156.24 135.047C157.607 140.755 163.09 167.776 163.09 167.776L155.243 170.761Z" fill="#FF3E3E"/>
<path opacity="0.7" d="M95.5354 116.513C95.5354 116.513 112.048 115.828 124.158 116.513C124.158 116.513 139.664 116.569 147.115 120.561C154.567 124.554 154.873 129.338 156.24 135.047C157.607 140.755 163.09 167.776 163.09 167.776L155.243 170.761L141.953 134.78C139.718 144.753 134.181 164.777 134.181 164.777L124.178 164.22L127.543 133.515C127.543 133.515 116.084 134.605 105.41 134.118C94.7359 133.63 95.5354 116.513 95.5354 116.513Z" fill="black"/>
<path d="M122.796 88.78L128.93 89.4746C128.93 89.4746 129.996 99.9856 130.988 102.028C130.988 102.028 149.854 104.443 157.583 104.236L161.506 106.72L161.644 111.039L157.8 111.145L156.561 108.408C156.561 108.408 153.965 108.302 153.363 106.941C153.363 106.941 133.317 111.453 125.935 106.301C125.925 106.306 121.474 100.211 122.796 88.78Z" fill="#FFC3BD"/>
<path d="M105.218 60.6326C105.218 60.6326 103.298 62.9326 104.029 64.9244C104.23 65.4924 104.585 66.0025 105.06 66.4053C105.534 66.8082 106.112 67.0903 106.738 67.2244C106.738 67.2244 107.098 70.4122 109.117 70.5042C111.135 70.5962 110.459 63.48 110.459 63.48L105.218 60.6326Z" fill="#263238"/>
<path d="M120.758 116.592L122.105 96.0434L130.465 90.8638C130.465 90.8638 127.731 81.88 122.5 80.3574C117.269 78.8348 105.859 75.3434 98.9407 77.0776C92.0219 78.8118 92.8164 86.4202 94.0057 92.0644L95.3381 92.3588C95.3381 92.3588 95.5454 114.6 95.5553 116.513L120.758 116.592Z" fill="#263238"/>
<path d="M105.716 78.3472C108.455 80.8174 114.041 82.2894 115.586 81.0612C117.131 79.833 115.181 78.706 113.731 77.3168C112.946 76.5532 112.971 75.1226 113.153 73.9818C113.249 73.407 113.391 72.8396 113.578 72.2844C118.705 72.0222 120.832 69.7866 121.044 65.8444C121.256 61.9022 119.342 57.3252 119.342 57.3252L115.719 54.4456C115.719 54.4456 110.784 55.1356 106.836 57.6656C104.487 59.156 105.183 62.0908 106.155 64.2574C106.567 65.1796 107.063 66.0676 107.636 66.9116C108.189 72.3074 105.716 78.3472 105.716 78.3472Z" fill="#FFC3BD"/>
<path d="M118.192 66.93C118.192 66.93 116.218 67.0174 115.354 65.8766" stroke="#263238" stroke-linecap="round" stroke-linejoin="round"/>
<path d="M115.048 62.2748C115.048 62.6244 115.275 62.9004 115.542 62.8958C115.808 62.8912 116.001 62.6014 115.991 62.2518C115.981 61.9022 115.764 61.6262 115.497 61.6308C115.231 61.6354 115.033 61.9252 115.048 62.2748Z" fill="#263238"/>
<path d="M119.549 62.3852C119.549 62.7348 119.776 63.0108 120.042 63.0062C120.309 63.0016 120.501 62.7118 120.492 62.3622C120.482 62.0126 120.265 61.7366 119.998 61.7412C119.731 61.7458 119.534 62.0402 119.549 62.3852Z" fill="#263238"/>
<path d="M117.984 65.2418L118.187 62.422L119.633 65.0992C119.407 65.278 119.128 65.3876 118.833 65.4131C118.538 65.4387 118.241 65.3788 117.984 65.2418Z" fill="#ED847E"/>
<path d="M115.285 60.0668C114.907 59.9698 114.503 60.0012 114.147 60.1554C113.791 60.3095 113.505 60.5764 113.34 60.9086" stroke="#263238" stroke-linecap="round" stroke-linejoin="round"/>
<path d="M120.941 60.5866C120.941 60.5866 120.032 59.6666 118.966 59.9012" stroke="#263238" stroke-linecap="round" stroke-linejoin="round"/>
<path d="M106.121 64.2574C111.767 64.446 112.467 58.4798 112.467 58.4798C115.261 59.8598 119.322 57.3298 119.322 57.3298L115.7 54.441C115.7 54.441 110.765 55.1402 106.817 57.661C104.453 59.156 105.149 62.1 106.121 64.2574Z" fill="#263238"/>
<path d="M121.138 59.0778C121.138 59.0778 124.059 57.2654 122.771 55.959C121.483 54.6526 113.592 57.1366 107.695 60.1818C107.695 60.1818 121.202 51.7592 124.874 54.4226C127.909 56.626 121.177 59.685 121.38 59.6804L121.138 59.0778Z" fill="#FF3E3E"/>
<path d="M104.66 58.4614C104.668 59.4152 104.862 60.3598 105.233 61.249L118.498 55.269C117.948 54.6775 117.29 54.1821 116.553 53.8062C115.768 53.3876 114.915 53.0923 114.027 52.9322C113.085 52.7644 112.121 52.7334 111.169 52.8402C106.318 53.36 104.636 56.8376 104.66 58.4614Z" fill="#FF3E3E"/>
<path d="M163.406 119.356C163.406 119.356 178.388 138.676 166.051 168.415" stroke="#263238" stroke-linecap="round" stroke-linejoin="round"/>
<path d="M143.632 129.393C143.632 129.393 143.632 129.43 143.632 129.504C143.632 129.577 143.632 129.619 143.632 129.702V129.748C143.81 131.608 144.14 133.454 144.619 135.268C145.3 137.949 146.203 140.502 146.948 142.554C150.106 151.271 149.741 160.664 149.741 160.664C150.787 159.45 152.702 158.585 155.096 157.978C163.811 155.747 178.606 156.943 178.606 156.943C181.507 147.453 180.471 132.6 177.584 124.283C174.697 115.966 166.693 117.843 166.693 117.843C166.693 117.843 158.244 118.073 157.183 117.967C155.241 117.747 153.276 117.785 151.345 118.077C144.821 119.191 143.252 123.998 143.632 129.393Z" fill="#FF3E3E"/>
<path d="M78.584 165.6C93.3889 178.057 121.967 179.363 143.232 177.983L155.145 158.005L159.971 149.914L144.466 130.433L143.646 129.407C143.646 129.407 143.646 129.444 143.646 129.518C143.646 129.591 143.646 129.633 143.646 129.715V129.761C143.859 133.234 145.231 161.106 134.27 167.941L134.181 168.001C132.698 168.895 130.977 169.385 129.212 169.418C109.102 169.961 109.664 145.498 114.777 140.259L79.8819 133.722C79.8819 133.722 72.9928 149.891 78.584 165.6Z" fill="#FF3E3E"/>
<path d="M117.397 134.955C117.397 134.955 120.669 137.485 118.981 140.88C117.294 144.274 101.023 137.683 94.6177 136.482C88.2121 135.281 80.7998 134.108 77.6118 133.497C74.4239 132.885 74.7002 124.361 77.3059 123.607C79.9115 122.852 105.435 127.057 109.669 129.366C112.465 130.948 115.058 132.824 117.397 134.955Z" fill="#263238"/>
<path d="M109.205 66.3642C109.517 66.0517 109.705 65.6501 109.74 65.2248C109.775 64.7996 109.654 64.3759 109.398 64.0228C108.608 62.9188 107.014 61.1662 105.484 62.4772C103.341 64.3172 106.999 67.6614 108.514 66.8518C108.768 66.7204 109.001 66.5562 109.205 66.3642Z" fill="#FFC3BD"/>
<path opacity="0.2" d="M121.138 59.0778C121.138 59.0778 124.059 57.2654 122.771 55.959C122.199 55.3794 120.487 55.499 118.172 56.1154C116.684 56.4889 115.226 56.9608 113.81 57.5276C111.776 58.351 109.615 59.4044 107.695 60.1818C107.695 60.1818 121.202 51.7592 124.874 54.4226C127.909 56.626 121.597 59.4826 121.375 59.6758L121.266 59.3032L121.138 59.0778Z" fill="black"/>
<path d="M119.751 58.2912C119.751 58.2912 122.713 58.7512 120.669 61.7228L119.751 58.2912Z" fill="#263238"/>
<path d="M116.914 56.4788C116.914 56.4788 121.38 55.016 122.623 55.844C123.867 56.672 122.564 58.2498 121.143 59.064L120.003 59.202L119.332 57.316L117.595 57.1182L116.914 56.4788Z" fill="#263238"/>
<path opacity="0.3" d="M110.829 54.2294L111.9 55.706L116.553 53.82C115.768 53.4014 114.915 53.1061 114.027 52.946L110.829 54.2294Z" fill="white"/>
<path opacity="0.1" d="M111.865 71.8796C112.173 72.643 112.615 73.3534 113.173 73.9818C113.269 73.407 113.411 72.8396 113.597 72.2844C112.999 72.2454 112.412 72.1084 111.865 71.8796Z" fill="black"/>
<path d="M156.107 112.332C156.304 115.52 157.785 118.128 159.601 118.772C159.915 118.885 160.252 118.933 160.588 118.915C162.828 118.795 164.457 115.662 164.23 111.923C164.003 108.183 161.999 105.248 159.759 105.368C158.846 105.414 158.041 105.961 157.415 106.84C156.492 108.1 155.974 110.115 156.107 112.332Z" fill="#F5F5F5"/>
<path d="M156.107 112.332C156.304 115.52 157.785 118.128 159.601 118.772C161.674 118.662 163.179 115.768 162.967 112.332C162.754 108.896 160.909 106.168 158.836 106.278C158.302 106.316 157.797 106.518 157.4 106.853C156.492 108.1 155.974 110.115 156.107 112.332Z" fill="white"/>
<path d="M76.1264 157.518C79.9411 155.02 94.7015 152.568 94.7015 152.568C103.668 152.568 111.54 160.089 112.625 170.076C113.514 178.199 109.664 185.573 103.461 188.936C103.461 188.936 102.943 189.138 102.074 189.456C98.7877 190.665 90.4476 193.596 85.5176 194.24" fill="#263238"/>
<path opacity="0.3" d="M66.1045 176.815C64.9543 166.278 71.7789 157 81.3478 156.093C90.9167 155.185 99.6062 162.991 100.756 173.528C101.907 184.065 95.082 193.343 85.5132 194.25C75.9443 195.158 67.2547 187.352 66.1045 176.815Z" fill="black"/>
<path d="M142.823 176.202C141.673 165.665 148.497 156.387 158.066 155.479C167.635 154.572 176.325 162.378 177.475 172.915C178.625 183.452 171.801 192.73 162.232 193.637C152.663 194.545 143.973 186.739 142.823 176.202Z" fill="#263238"/>
<path d="M149.504 158.994L158.328 193.527C159.615 193.721 160.924 193.757 162.222 193.632H162.32C164.013 193.228 163.258 193.665 164.955 193.14C169.274 191.811 175.546 189.46 175.546 189.46C182.193 186.447 185.949 179.119 185.036 170.747C183.93 160.604 176.123 153.028 166.934 153.649C166.934 153.649 162.572 154.399 158.081 155.489C156.107 155.949 154.133 156.497 152.51 157.067C151.435 157.604 150.427 158.251 149.504 158.994Z" fill="#263238"/>
<path opacity="0.3" d="M142.822 176.18C143.809 185.265 150.407 192.317 158.338 193.508C159.625 193.703 160.934 193.738 162.231 193.614H162.33C164.137 193.432 165.893 192.944 167.512 192.174C174.179 189.023 178.398 181.369 177.475 172.905C176.325 162.375 167.655 154.578 158.091 155.471H158.066C156.124 155.654 154.24 156.19 152.519 157.049C151.444 157.587 150.436 158.235 149.514 158.981C144.791 162.808 142.042 169.229 142.822 176.18Z" fill="black"/>
<path d="M145.225 164.082C145.515 163.652 145.845 163.247 146.212 162.872C148.418 160.066 153.462 159.017 156.763 159.266C159.294 159.496 161.724 160.308 163.835 161.63C166.243 163.084 167.966 165.31 170.354 166.837C174.885 169.754 181.759 169.671 186.309 166.667C186.565 166.497 186.81 166.311 187.039 166.111C187.503 165.661 187.812 165.092 187.928 164.478C188.102 163.71 188.038 162.913 187.745 162.178C186.758 159.592 183.466 157.32 181.389 155.935C177.177 153.165 172.222 151.539 167.077 151.239C152.406 150.296 146.148 161.975 145.225 164.082Z" fill="#FF3E3E"/>
<path opacity="0.3" d="M146.243 164.45C149.396 160.209 153.443 159.017 156.744 159.266C159.275 159.496 161.705 160.308 163.816 161.63C166.224 163.084 167.946 165.31 170.335 166.837C174.865 169.754 181.74 169.671 186.29 166.667C186.546 166.497 186.79 166.311 187.02 166.111C187.484 165.661 187.793 165.092 187.908 164.478C188.082 163.71 188.019 162.913 187.726 162.178C186.201 163.82 181.759 167.776 175.744 165.858C168.243 163.443 166.412 156.267 158.392 156.331C152.021 156.4 148.098 161 146.243 164.45Z" fill="black"/>
<g opacity="0.3">
<path opacity="0.3" d="M179.242 154.67C177.102 153.253 174.694 152.224 172.145 151.639C169.594 151.034 166.952 150.832 164.329 151.041C161.71 151.276 159.145 151.884 156.724 152.844L155.826 153.212L154.947 153.622C154.355 153.879 153.797 154.201 153.225 154.496C152.652 154.79 152.124 155.153 151.577 155.48C151.029 155.807 150.516 156.188 149.993 156.552C152.145 155.208 154.442 154.078 156.847 153.18C159.247 152.282 161.777 151.72 164.353 151.51C166.924 151.281 169.518 151.436 172.037 151.97C173.301 152.231 174.541 152.588 175.743 153.037C176.963 153.475 178.135 154.022 179.242 154.67Z" fill="black"/>
</g>
<g opacity="0.3">
<path opacity="0.3" d="M163.262 151.381C163.878 149.463 164.247 147.484 164.363 145.484C164.526 143.492 164.561 141.491 164.516 139.504C164.472 137.517 164.324 135.511 164.126 133.524L163.766 130.553C163.608 129.564 163.47 128.575 163.272 127.59L163.721 133.57L163.899 136.551C163.929 137.545 163.993 138.538 163.998 139.532C164.082 141.519 164.042 143.506 163.963 145.512C163.929 146.505 163.845 147.494 163.736 148.483C163.65 149.458 163.491 150.427 163.262 151.381Z" fill="black"/>
</g>
<path opacity="0.3" d="M134.295 167.9C144.599 161.722 145.008 145.783 144.658 135.268C144.594 133.46 144.515 131.818 144.456 130.405C144.348 128.992 144.348 127.573 144.456 126.16C145.497 118.938 151.419 118.068 151.419 118.068H151.394C144.836 119.191 143.266 123.998 143.646 129.393C143.646 129.393 143.646 129.43 143.646 129.504C143.646 129.577 143.646 129.619 143.646 129.702V129.748C143.868 133.221 145.24 161.092 134.295 167.9Z" fill="black"/>
<path opacity="0.2" d="M135.133 113.464C135.997 114.305 147.165 112.148 149.114 113.114C149.938 113.519 150.299 114.954 151.128 116.527C153.457 119.977 156.734 120.52 156.936 120.548C153.028 117.788 151.937 111.145 153.876 106.945C155.816 102.746 162.759 103.836 163.154 103.96C161.97 103.475 160.696 103.208 159.403 103.173C155.648 102.989 151.068 103.974 149.785 106.191C147.18 110.713 136.007 109.696 134.98 110.883C133.954 112.07 134.27 112.622 135.133 113.464Z" fill="black"/>
<path d="M143.878 109.448C144.557 110.616 144.828 111.952 144.653 113.27L135.193 114.264C134.709 113.742 134.352 113.13 134.145 112.468C133.938 111.806 133.886 111.11 133.994 110.428C133.994 110.428 143.365 109.549 143.878 109.448Z" fill="#263238"/>
<path d="M172.605 109.121C172.605 109.121 173.547 107.254 172.417 106.071C174.944 105.86 176.508 105.611 178.137 105.391C178.379 106.076 178.497 106.734 177.643 107.778C176.79 108.822 172.605 109.121 172.605 109.121Z" fill="#263238"/>
<path d="M177.86 120.81C179.498 123.298 180.9 127.282 181.024 133.644" stroke="#FF3E3E" stroke-linecap="round" stroke-linejoin="round"/>
<path d="M172.466 116.707C173.658 116.964 174.754 117.516 175.64 118.303" stroke="#FF3E3E" stroke-linecap="round" stroke-linejoin="round"/>
<path d="M98.8716 92.7268L105.1 93.4352C105.1 93.4352 106.185 104.103 107.192 106.177C107.192 106.177 126.344 108.634 134.196 108.417L138.178 110.938L138.317 115.327L134.413 115.432L133.155 112.672C133.155 112.672 130.519 112.567 129.912 111.182C129.912 111.182 109.561 115.782 102.065 110.538C102.069 110.52 97.5441 104.333 98.8716 92.7268Z" fill="#FFC3BD"/>
<path opacity="0.2" d="M149.583 174.8C149.761 180.587 153.827 185.168 158.668 185.04C159.319 185.021 159.964 184.918 160.583 184.731C164.462 183.581 167.255 179.317 167.102 174.326C166.949 169.496 164.092 165.503 160.336 164.395C159.586 164.17 158.8 164.066 158.012 164.087C153.171 164.22 149.401 169.032 149.583 174.8Z" fill="#FAFAFA"/>
<path d="M154.039 174.8C154.192 179.74 157 183.802 160.583 184.745C164.462 183.595 167.255 179.331 167.102 174.34C166.949 169.51 164.092 165.517 160.336 164.409C156.606 165.352 153.886 169.685 154.039 174.8Z" fill="#263238"/>
<path opacity="0.2" d="M73.5454 175.26C73.728 181.047 77.7943 185.633 82.6306 185.5C83.2815 185.484 83.9265 185.38 84.5453 185.191C88.4292 184.041 91.2223 179.782 91.0644 174.786C90.9164 169.961 88.059 165.963 84.3035 164.855C83.5531 164.63 82.7671 164.526 81.9792 164.547C77.138 164.68 73.3677 169.482 73.5454 175.26Z" fill="#FAFAFA"/>
<path d="M78.0016 175.26C78.1596 180.196 80.9626 184.258 84.5454 185.201C88.4292 184.051 91.2223 179.791 91.0644 174.795C90.9164 169.97 88.059 165.973 84.3036 164.864C80.5678 165.807 77.8437 170.14 78.0016 175.26Z" fill="#263238"/>
<path d="M65.916 160.016C65.8321 165.706 75.1246 169.473 90.6746 171.847C94.8662 172.534 99.1498 172.58 103.357 171.985C110.266 170.922 113.642 168.199 113.642 168.199C113.642 168.199 111.885 148.534 94.4992 146.041C82.6553 144.348 73.7428 148.801 69.2224 153.599C67.0954 155.853 65.9407 158.194 65.916 160.016Z" fill="#FF3E3E"/>
<path opacity="0.3" d="M65.916 160.016C65.8321 165.706 75.1246 169.473 90.6746 171.847C94.8662 172.534 99.1498 172.58 103.357 171.985C102.612 166.644 99.2664 152.637 84.7231 151.184C78.1251 150.521 73.0322 151.763 69.2224 153.599C67.0955 155.853 65.9407 158.194 65.916 160.016Z" fill="black"/>
<g opacity="0.3">
<path opacity="0.3" d="M112.635 168.286C112.315 165.61 111.63 162.982 110.597 160.466C109.581 157.925 108.178 155.533 106.432 153.364C105.549 152.286 104.558 151.289 103.471 150.388C102.394 149.472 101.206 148.675 99.9325 148.014C97.3977 146.682 94.589 145.865 91.6911 145.618C93.1111 145.839 94.5079 146.175 95.8661 146.62C96.552 146.814 97.1985 147.113 97.84 147.366C98.4838 147.653 99.1113 147.971 99.7202 148.318C100.342 148.649 100.915 149.049 101.502 149.422C102.089 149.794 102.632 150.236 103.15 150.701C104.204 151.593 105.164 152.577 106.017 153.64C107.751 155.767 109.164 158.106 110.217 160.591C110.764 161.828 111.235 163.094 111.628 164.381C112.047 165.663 112.383 166.967 112.635 168.286Z" fill="black"/>
</g>
<path d="M135.968 161.791L134.941 165.039L124.178 164.202L124.035 159.661L135.968 161.791Z" fill="#FF3E3E"/>
<path d="M71.8872 139.642L48.2044 138.745" stroke="#FF3E3E" stroke-linecap="round" stroke-linejoin="round"/>
<path d="M40.3777 134.725L36.8584 134.591" stroke="#FF3E3E" stroke-linecap="round" stroke-linejoin="round"/>
<path d="M60.5369 135.488L43.077 134.826" stroke="#FF3E3E" stroke-linecap="round" stroke-linejoin="round"/>
<path d="M48.3179 146.915L33.6858 146.363" stroke="#FF3E3E" stroke-linecap="round" stroke-linejoin="round"/>
<path d="M57.3635 147.26L50.9876 147.016" stroke="#FF3E3E" stroke-linecap="round" stroke-linejoin="round"/>
</svg>
