<svg width="47" height="64" viewBox="0 0 47 64" fill="none" xmlns="http://www.w3.org/2000/svg">
<path fill-rule="evenodd" clip-rule="evenodd" d="M5.87828 18.5077C5.07909 17.8131 3.86814 17.898 3.17367 18.6973C2.47933 19.4964 2.5642 20.7071 3.36323 21.4015L9.15 26.4308L10.5325 27.6328C11.3662 28.3577 12.6298 28.2693 13.3544 27.4353L14.5569 26.0513L16.1964 24.167C16.9212 23.3339 18.184 23.2459 19.0173 23.9703L21.8479 26.4308L23.2318 27.6332C24.0658 28.3579 25.3294 28.269 26.0538 27.4347L27.2548 26.0513L28.8906 24.1699C29.6153 23.3364 30.8784 23.2481 31.712 23.9726L34.5401 26.4308L35.924 27.6332C36.758 28.3579 38.0216 28.269 38.7459 27.4347L39.947 26.0513L42.4625 23.159C43.1574 22.36 43.0727 21.1488 42.2733 20.4542C41.4744 19.76 40.2639 19.8448 39.5695 20.6436L38.3667 22.0274C37.6421 22.8609 36.379 22.9494 35.5453 22.2248L30.7275 18.0376C30.227 17.6026 29.4687 17.6558 29.0338 18.1563L27.3078 20.1427C27.3074 20.1433 27.3078 20.1442 27.3085 20.1442C27.3093 20.1442 27.3097 20.145 27.3092 20.1456L25.2857 22.4743C24.7759 23.061 23.887 23.1233 23.3004 22.6135L18.6387 18.562C17.8049 17.8374 16.5417 17.9259 15.8171 18.7596L15.4367 19.1973L12.9766 22.0274C12.252 22.8609 10.9889 22.9494 10.1552 22.2248L5.87828 18.5077Z" fill="#EB5757"/>
<path fill-rule="evenodd" clip-rule="evenodd" d="M6.87828 36.5077C6.07909 35.8131 4.86814 35.898 4.17367 36.6973C3.47933 37.4964 3.5642 38.7071 4.36323 39.4015L10.15 44.4308L11.5325 45.6328C12.3662 46.3577 13.6298 46.2693 14.3544 45.4353L15.5569 44.0513L17.1964 42.167C17.9212 41.3339 19.184 41.2459 20.0173 41.9703L22.8479 44.4308L24.2318 45.6332C25.0658 46.3579 26.3294 46.269 27.0538 45.4347L28.2548 44.0513L29.8906 42.1699C30.6153 41.3364 31.8784 41.2481 32.712 41.9726L35.5401 44.4308L36.924 45.6332C37.758 46.3579 39.0216 46.269 39.7459 45.4347L40.947 44.0513L43.4625 41.159C44.1574 40.36 44.0727 39.1488 43.2733 38.4542C42.4744 37.76 41.2639 37.8448 40.5695 38.6436L39.3667 40.0274C38.6421 40.8609 37.379 40.9494 36.5453 40.2248L31.7275 36.0376C31.227 35.6026 30.4687 35.6558 30.0338 36.1563L28.3078 38.1427C28.3074 38.1433 28.3078 38.1442 28.3085 38.1442C28.3093 38.1442 28.3097 38.145 28.3092 38.1456L26.2857 40.4743C25.7759 41.061 24.887 41.1233 24.3004 40.6135L19.6387 36.562C18.8049 35.8374 17.5417 35.9259 16.8171 36.7596L16.4367 37.1973L13.9766 40.0274C13.252 40.8609 11.9889 40.9494 11.1552 40.2248L6.87828 36.5077Z" fill="#EB5757"/>
</svg>
