<svg width="17" height="17" viewBox="0 0 17 17" fill="none" xmlns="http://www.w3.org/2000/svg">
<path d="M13.25 15.5H7.25C6.98478 15.5 6.73043 15.3946 6.54289 15.2071C6.35536 15.0196 6.25 14.7652 6.25 14.5V13H7.25V14.5H13.25V2.5H7.25V4H6.25V2.5C6.25 2.23478 6.35536 1.98043 6.54289 1.79289C6.73043 1.60536 6.98478 1.5 7.25 1.5H13.25C13.5152 1.5 13.7696 1.60536 13.9571 1.79289C14.1446 1.98043 14.25 2.23478 14.25 2.5V14.5C14.25 14.7652 14.1446 15.0196 13.9571 15.2071C13.7696 15.3946 13.5152 15.5 13.25 15.5Z" fill="#4F4F4F" stroke="#4F4F4F" stroke-width="0.5"/>
<path d="M7.545 10.795L9.335 9H2.25V8H9.335L7.545 6.205L8.25 5.5L11.25 8.5L8.25 11.5L7.545 10.795Z" fill="#4F4F4F" stroke="#4F4F4F" stroke-width="0.5"/>
</svg>
