<svg width="13" height="17" viewBox="0 0 13 17" fill="none" xmlns="http://www.w3.org/2000/svg">
<path d="M3.17941 0.98968L4.09588 0.714033C4.59792 0.562643 5.1379 0.599087 5.61505 0.816564C6.0922 1.03404 6.47393 1.4177 6.68899 1.89594L7.39735 3.47128C7.58227 3.88263 7.63376 4.34155 7.54461 4.78365C7.45545 5.22575 7.23013 5.62885 6.90025 5.93639L5.72698 7.03033C5.69269 7.06229 5.67096 7.10547 5.66573 7.15206C5.63117 7.46383 5.84242 8.07088 6.32932 8.9151C6.6835 9.52843 7.00469 9.95957 7.2772 10.2007C7.46724 10.3695 7.57169 10.4056 7.61646 10.3931L9.19494 9.91009C9.62601 9.77824 10.0875 9.78458 10.5148 9.92823C10.9421 10.0719 11.3137 10.3456 11.5776 10.7111L12.5836 12.1058C12.8895 12.53 13.0311 13.0507 12.9822 13.5714C12.9332 14.092 12.697 14.5772 12.3174 14.9369L11.6216 15.5966C11.2523 15.9463 10.7987 16.1944 10.3051 16.3167C9.81142 16.4391 9.29449 16.4315 8.80464 16.2947C6.64188 15.6908 4.70293 13.8657 2.96581 10.8572C1.22633 7.84471 0.616141 5.25002 1.17843 3.07234C1.305 2.58256 1.5556 2.13365 1.90608 1.76887C2.25656 1.40409 2.69509 1.13574 3.17941 0.98968ZM3.51946 2.11818C3.22895 2.20571 2.96587 2.36656 2.75556 2.58526C2.54526 2.80396 2.39481 3.07312 2.31871 3.36683C1.84595 5.19819 2.38703 7.49838 3.98594 10.2682C5.58248 13.0341 7.30154 14.6518 9.12191 15.1607C9.41572 15.2426 9.72572 15.2469 10.0217 15.1735C10.3177 15.1 10.5897 14.9511 10.8111 14.7414L11.5077 14.0817C11.6803 13.9182 11.7877 13.6976 11.81 13.4608C11.8322 13.2241 11.7678 12.9874 11.6286 12.7946L10.6234 11.4006C10.5035 11.2343 10.3345 11.1097 10.1401 11.0444C9.94572 10.979 9.73576 10.9762 9.53969 11.0362L7.95728 11.5208C7.03846 11.7941 6.20445 11.0551 5.30919 9.50408C4.70607 8.45961 4.42493 7.65074 4.49482 7.0217C4.53173 6.695 4.6833 6.39344 4.9236 6.16884L6.09687 5.0749C6.24688 4.93512 6.34936 4.75188 6.38992 4.5509C6.43049 4.34991 6.4071 4.14127 6.32304 3.95425L5.61468 2.3789C5.51693 2.16169 5.34353 1.98743 5.1268 1.88861C4.91007 1.78978 4.6648 1.77313 4.43671 1.84175L3.51946 2.11818Z" fill="#F2F2F2"/>
</svg>
